<svg width="121" height="120" viewBox="0 0 121 120" fill="none" xmlns="http://www.w3.org/2000/svg">
<g filter="url(#filter0_d_4_155)">
<path d="M23 37.5C23 27.1447 31.3947 18.75 41.75 18.75H79.25C89.6053 18.75 98 27.1447 98 37.5V75C98 85.3553 89.6053 93.75 79.25 93.75H41.75C31.3947 93.75 23 85.3553 23 75V37.5Z" fill="white"/>
</g>
<g clip-path="url(#clip0_4_155)">
<path d="M79.2499 69.6583C79.2499 71.2183 78.0569 72.4114 76.4968 72.4114H57.2257C55.6656 72.4114 54.4726 71.2183 54.4726 69.6583V57.7285C54.4726 56.1684 55.6656 54.9755 57.2257 54.9755H76.4968C78.0569 54.9755 79.2499 56.1684 79.2499 57.7285V69.6583Z" fill="#759EF2"/>
<path d="M54.4726 58.6463H79.2499V62.3169H54.4726V58.6463Z" fill="#37474F"/>
<path d="M56.3078 64.1523H77.4144V67.823H56.3078V64.1523Z" fill="#E8EAF6"/>
<path d="M71.7499 56.7917C71.7499 58.6422 70.3348 60.0573 68.4842 60.0573H45.6249C43.7744 60.0573 42.3593 58.6422 42.3593 56.7917V42.6406C42.3593 40.7901 43.7744 39.375 45.6249 39.375H68.4842C70.3348 39.375 71.7499 40.7901 71.7499 42.6406V56.7917Z" fill="#6C71D3"/>
<path d="M50.0664 53.2211H46.4089C46.1203 53.2211 45.8864 53.455 45.8864 53.7436V53.7436C45.8864 54.0322 46.1203 54.2661 46.4089 54.2661H50.0664C50.3549 54.2661 50.5889 54.0322 50.5889 53.7436V53.7436C50.5889 53.455 50.3549 53.2211 50.0664 53.2211Z" fill="white"/>
<path d="M55.8136 53.2211H52.1561C51.8675 53.2211 51.6336 53.455 51.6336 53.7436V53.7436C51.6336 54.0322 51.8675 54.2661 52.1561 54.2661H55.8136C56.1022 54.2661 56.3361 54.0322 56.3361 53.7436C56.3361 53.455 56.1022 53.2211 55.8136 53.2211Z" fill="white"/>
<path d="M61.5612 53.2211H57.9037C57.6151 53.2211 57.3812 53.455 57.3812 53.7436V53.7436C57.3812 54.0322 57.6151 54.2661 57.9037 54.2661H61.5612C61.8498 54.2661 62.0837 54.0322 62.0837 53.7436C62.0837 53.455 61.8498 53.2211 61.5612 53.2211Z" fill="white"/>
<path d="M67.3085 53.2211H63.651C63.3624 53.2211 63.1285 53.455 63.1285 53.7436V53.7436C63.1285 54.0322 63.3624 54.2661 63.651 54.2661H67.3085C67.597 54.2661 67.831 54.0322 67.831 53.7436C67.831 53.455 67.597 53.2211 67.3085 53.2211Z" fill="white"/>
<path d="M50.5889 45.645C50.5889 44.3465 49.5362 43.2938 48.2376 43.2938C46.939 43.2938 45.8864 44.3465 45.8864 45.645C45.8864 46.9436 46.939 47.9963 48.2376 47.9963C49.5362 47.9963 50.5889 46.9436 50.5889 45.645Z" fill="white"/>
</g>
<defs>
<filter id="filter0_d_4_155" x="0.5" y="0" width="120" height="120" filterUnits="userSpaceOnUse" color-interpolation-filters="sRGB">
<feFlood flood-opacity="0" result="BackgroundImageFix"/>
<feColorMatrix in="SourceAlpha" type="matrix" values="0 0 0 0 0 0 0 0 0 0 0 0 0 0 0 0 0 0 127 0" result="hardAlpha"/>
<feOffset dy="3.75"/>
<feGaussianBlur stdDeviation="11.25"/>
<feColorMatrix type="matrix" values="0 0 0 0 0.494118 0 0 0 0 0.537255 0 0 0 0 0.6 0 0 0 0.12 0"/>
<feBlend mode="normal" in2="BackgroundImageFix" result="effect1_dropShadow_4_155"/>
<feBlend mode="normal" in="SourceGraphic" in2="effect1_dropShadow_4_155" result="shape"/>
</filter>
<clipPath id="clip0_4_155">
<rect width="37.5" height="37.5" fill="white" transform="translate(41.75 37.5)"/>
</clipPath>
</defs>
</svg>
