<svg width="32" height="32" viewBox="0 0 32 32" fill="none" xmlns="http://www.w3.org/2000/svg">
<path d="M22.6046 27.1295H9.46827C5.52736 27.1295 2.90009 25.1591 2.90009 20.5614V11.3659C2.90009 6.76818 5.52736 4.79773 9.46827 4.79773H22.6046C26.5455 4.79773 29.1728 6.76818 29.1728 11.3659V20.5614C29.1728 25.1591 26.5455 27.1295 22.6046 27.1295Z" stroke="#0066FF" stroke-width="1.97045" stroke-miterlimit="10" stroke-linecap="round" stroke-linejoin="round"/>
<path d="M25.2319 9.39545H21.2909M10.7819 22.5318H6.84094M16.0364 19.9045C17.0816 19.9045 18.084 19.4893 18.823 18.7503C19.5621 18.0112 19.9773 17.0088 19.9773 15.9636C19.9773 14.9184 19.5621 13.916 18.823 13.177C18.084 12.4379 17.0816 12.0227 16.0364 12.0227C14.9912 12.0227 13.9888 12.4379 13.2498 13.177C12.5107 13.916 12.0955 14.9184 12.0955 15.9636C12.0955 17.0088 12.5107 18.0112 13.2498 18.7503C13.9888 19.4893 14.9912 19.9045 16.0364 19.9045V19.9045Z" stroke="#0066FF" stroke-width="1.97045" stroke-miterlimit="10" stroke-linecap="round" stroke-linejoin="round"/>
</svg>
