<svg width="51" height="41" viewBox="0 0 51 41" fill="none" xmlns="http://www.w3.org/2000/svg">
<g clip-path="url(#clip0_4_13)">
<path d="M31.5547 36.9435C31.3536 37.0844 31.3995 37.3958 31.6371 37.458C32.7016 37.7371 33.8191 37.8857 34.9713 37.8857C42.214 37.8857 48.0856 32.0143 48.0856 24.7714C48.0856 19.5148 44.9928 14.9806 40.5277 12.889C40.3052 12.7847 40.0704 12.9947 40.135 13.2318C40.634 15.0676 40.9004 16.9993 40.9004 18.9931C40.9004 26.4187 37.2058 32.9815 31.5547 36.9435Z" fill="#FECE2F"/>
<path d="M37.9863 18.9931C37.9863 29.4827 29.4827 37.9863 18.9931 37.9863C9.71629 37.9863 7.89771 38.8259 2.72279 40.7419C2.06675 40.9848 1.46455 40.195 1.84375 39.607C3.45908 37.1029 5.76723 32.8433 4.22069 30.9321C1.95839 28.1363 0 23.5162 0 18.9931C0 8.50351 8.50351 0 18.9931 0C29.4827 0 37.9863 8.50351 37.9863 18.9931Z" fill="#6C71D3"/>
<path d="M18.3033 10.2208C18.5474 9.591 19.4384 9.591 19.6825 10.2208L21.4524 14.7871C21.6622 15.3286 22.1696 15.6972 22.7495 15.7296L27.6392 16.0016C28.3136 16.0392 28.589 16.8867 28.0655 17.3135L24.2695 20.4077C23.8193 20.7746 23.6255 21.371 23.774 21.9325L25.0263 26.667C25.199 27.32 24.4781 27.8438 23.9104 27.4778L19.7946 24.8237C19.3064 24.509 18.6794 24.509 18.1913 24.8237L14.0755 27.4778C13.5078 27.8438 12.7869 27.32 12.9596 26.667L14.2118 21.9325C14.3603 21.371 14.1665 20.7746 13.7163 20.4077L9.9204 17.3135C9.39687 16.8867 9.67224 16.0392 10.3466 16.0016L15.2363 15.7296C15.8163 15.6972 16.3235 15.3286 16.5335 14.7871L18.3033 10.2208Z" fill="white"/>
</g>
<defs>
<clipPath id="clip0_4_13">
<rect width="51" height="40.8" fill="white"/>
</clipPath>
</defs>
</svg>
