<svg width="121" height="121" viewBox="0 0 121 121" fill="none" xmlns="http://www.w3.org/2000/svg">
<g filter="url(#filter0_d_4_102)">
<path d="M22.75 37.75C22.75 27.3947 31.1447 19 41.5 19H79C89.3553 19 97.75 27.3947 97.75 37.75V75.25C97.75 85.6053 89.3553 94 79 94H41.5C31.1447 94 22.75 85.6053 22.75 75.25V37.75Z" fill="white"/>
</g>
<path fill-rule="evenodd" clip-rule="evenodd" d="M67.1134 63.0799C66.8219 63.0799 66.5789 63.1813 66.4293 63.3652C66.0462 63.8358 66.2184 64.6644 66.8051 65.1752C67.0611 65.3981 67.4299 65.5315 67.7919 65.5315C68.1605 65.5315 68.468 65.3936 68.6579 65.1436C68.9992 64.6877 68.8028 64.0415 68.1578 63.4979C67.8384 63.2286 67.4676 63.0799 67.1134 63.0799ZM70.3287 60.715C70.0434 60.6318 69.8302 60.6937 69.725 60.8855C69.5657 61.1755 69.6833 61.7493 70.0048 62.2494C70.3306 62.7559 70.6068 63.0128 70.8268 63.0128C70.9026 63.0128 70.9705 62.9809 71.0232 62.9212C71.1455 62.7812 71.1859 62.488 71.1345 62.1171C71.0828 61.738 70.8494 60.9584 70.3287 60.715ZM76.6984 72.2043C76.9933 72.5684 76.5448 72.938 76.2106 72.6427C72.8725 69.6958 70.0651 68.8611 67.2885 68.7454C65.8148 68.6841 64.3501 68.8248 62.8187 68.9597C62.5129 68.9866 62.2044 69.0133 61.8924 69.0379C61.7563 69.0489 61.6192 69.0591 61.4822 69.0692C60.9422 69.1272 60.3951 69.158 59.8401 69.158C57.2275 69.158 54.7622 68.52 52.5118 67.2607C50.2534 65.9982 48.4584 64.2345 47.1772 62.0185C45.8982 59.8075 45.25 57.3643 45.25 54.7566C45.25 52.1517 45.8976 49.6982 47.1746 47.4643C48.4543 45.227 50.2287 43.4459 52.4487 42.1707C54.6686 40.8963 57.0902 40.25 59.6465 40.25C62.3162 40.25 64.8115 40.8884 67.063 42.1477C69.321 43.4104 71.1213 45.1794 72.4146 47.4062C73.7055 49.6304 74.3599 52.08 74.3599 54.687C74.3599 55.6934 74.262 56.6761 74.0698 57.6319C74.045 57.7706 74.0093 57.9388 73.959 58.1346C73.9215 58.2915 73.8813 58.4477 73.8385 58.603L73.8265 58.5963C73.5679 59.4215 73.0864 60.5896 72.1903 62.0893C72.0938 62.247 72.0404 62.1268 72.0279 62.0386C71.7143 59.8329 70.7445 58.1579 69.0349 57.076C69.0069 57.0583 68.978 57.0411 68.9495 57.0239C68.6694 56.8521 68.3703 56.6959 68.051 56.5553C67.6436 56.3765 67.2041 56.2223 66.7314 56.0951C66.4415 56.0175 65.7954 56.0508 66.0299 55.8191C66.1265 55.7237 67.5262 55.7018 69.1352 55.8034C69.1665 55.8054 69.1977 55.8073 69.2293 55.8093C69.2589 55.4731 69.2744 55.1284 69.2744 54.7748C69.2744 52.0226 68.3603 49.7785 66.4797 47.9148C64.5977 46.05 62.3973 45.1431 59.7523 45.1431C57.0438 45.1431 54.8476 46.051 53.0385 47.9187C51.2197 49.7957 50.3358 52.021 50.3358 54.7215C50.3358 57.4163 51.2447 59.6322 53.1147 61.4956C54.9846 63.3592 57.1557 64.2654 59.7523 64.2654C59.8769 64.2654 59.9999 64.2616 60.1229 64.2577C60.12 64.2264 60.1179 64.1951 60.1153 64.1642C59.966 62.2642 59.9344 60.6857 60.3261 61.3225C60.4645 61.5477 60.6022 61.7604 60.7395 61.9651C61.2516 62.728 61.7582 63.3558 62.2626 63.8764C62.2879 63.9025 62.3133 63.9279 62.3389 63.9535C64.1847 65.8208 66.0017 66.2802 67.9332 66.7526C67.9743 66.763 68.0154 66.773 68.0565 66.783C68.3726 66.8606 68.692 66.9392 69.0152 67.0254C71.3109 67.636 73.7971 68.6204 76.6984 72.2043Z" fill="#FF8C00"/>
<defs>
<filter id="filter0_d_4_102" x="0.25" y="0.25" width="120" height="120" filterUnits="userSpaceOnUse" color-interpolation-filters="sRGB">
<feFlood flood-opacity="0" result="BackgroundImageFix"/>
<feColorMatrix in="SourceAlpha" type="matrix" values="0 0 0 0 0 0 0 0 0 0 0 0 0 0 0 0 0 0 127 0" result="hardAlpha"/>
<feOffset dy="3.75"/>
<feGaussianBlur stdDeviation="11.25"/>
<feColorMatrix type="matrix" values="0 0 0 0 0.494118 0 0 0 0 0.537255 0 0 0 0 0.6 0 0 0 0.12 0"/>
<feBlend mode="normal" in2="BackgroundImageFix" result="effect1_dropShadow_4_102"/>
<feBlend mode="normal" in="SourceGraphic" in2="effect1_dropShadow_4_102" result="shape"/>
</filter>
</defs>
</svg>
