<svg width="747" height="719" viewBox="0 0 747 719" fill="none" xmlns="http://www.w3.org/2000/svg">
<path opacity="0.48" d="M307.234 37.1689C338.232 -11.0907 408.768 -11.0907 439.766 37.1689L512.203 149.947C522.869 166.552 539.379 178.547 558.467 183.559L688.11 217.601C743.586 232.168 765.383 299.253 729.064 343.646L644.19 447.389C631.694 462.663 625.388 482.072 626.519 501.775L634.205 635.592C637.494 692.854 580.429 734.315 526.985 713.492L402.092 664.83C383.704 657.666 363.296 657.666 344.908 664.83L220.015 713.492C166.571 734.315 109.506 692.854 112.795 635.592L120.481 501.775C121.612 482.072 115.306 462.663 102.81 447.389L17.936 343.646C-18.383 299.253 3.41412 232.168 58.8904 217.601L188.533 183.559C207.621 178.547 224.131 166.552 234.797 149.947L307.234 37.1689Z" fill="#D9E8FA"/>
</svg>
