<svg width="621" height="598" viewBox="0 0 621 598" fill="none" xmlns="http://www.w3.org/2000/svg">
<path d="M255.268 30.7893C281.02 -9.30394 339.62 -9.30397 365.372 30.7893L425.552 124.483C434.413 138.278 448.13 148.244 463.987 152.408L571.692 180.689C617.781 192.792 635.89 248.524 605.717 285.405L535.205 371.593C524.823 384.283 519.584 400.408 520.524 416.776L526.909 527.949C529.642 575.522 482.233 609.966 437.833 592.667L334.074 552.24C318.797 546.288 301.843 546.288 286.566 552.24L182.807 592.667C138.407 609.966 90.9982 575.522 93.7306 527.949L100.116 416.776C101.056 400.408 95.8168 384.283 85.4351 371.593L14.9235 285.405C-15.2497 248.524 2.85891 192.792 48.9477 180.689L156.653 152.408C172.51 148.244 186.227 138.278 195.088 124.483L255.268 30.7893Z" fill="#D9E8FA"/>
</svg>
