<svg width="121" height="120" viewBox="0 0 121 120" fill="none" xmlns="http://www.w3.org/2000/svg">
<g filter="url(#filter0_d_4_101)">
<path d="M23 37.5C23 27.1447 31.3947 18.75 41.75 18.75H79.25C89.6053 18.75 98 27.1447 98 37.5V75C98 85.3553 89.6053 93.75 79.25 93.75H41.75C31.3947 93.75 23 85.3553 23 75V37.5Z" fill="white"/>
</g>
<g clip-path="url(#clip0_4_101)">
<path d="M41.75 55.5C41.75 47.0138 41.75 42.7725 44.375 40.125C47 37.4775 51.2525 37.5 59.75 37.5H61.25C69.7362 37.5 73.9775 37.5 76.625 40.125C79.2725 42.75 79.25 47.0025 79.25 55.5V57C79.25 65.4862 79.25 69.7275 76.625 72.375C74 75.0225 69.7475 75 61.25 75H59.75C51.2638 75 47.0225 75 44.375 72.375C41.7275 69.75 41.75 65.4975 41.75 57V55.5Z" fill="#0077FF"/>
<path d="M61.7038 64.5C53.1575 64.5 48.2825 58.6425 48.08 48.8925H52.3588C52.5013 56.0475 55.655 59.0775 58.1563 59.7038V48.9075H62.1875V55.08C64.655 54.8138 67.25 52.0013 68.1238 48.9075H72.155C71.4838 52.7175 68.6713 55.53 66.6725 56.6888C68.2337 57.4632 69.6131 58.5598 70.7197 59.9063C71.8263 61.2527 72.635 62.8183 73.0925 64.5H68.6563C67.7038 61.5338 65.33 59.25 62.1875 58.9238V64.5H61.7038Z" fill="white"/>
</g>
<defs>
<filter id="filter0_d_4_101" x="0.5" y="0" width="120" height="120" filterUnits="userSpaceOnUse" color-interpolation-filters="sRGB">
<feFlood flood-opacity="0" result="BackgroundImageFix"/>
<feColorMatrix in="SourceAlpha" type="matrix" values="0 0 0 0 0 0 0 0 0 0 0 0 0 0 0 0 0 0 127 0" result="hardAlpha"/>
<feOffset dy="3.75"/>
<feGaussianBlur stdDeviation="11.25"/>
<feColorMatrix type="matrix" values="0 0 0 0 0.494118 0 0 0 0 0.537255 0 0 0 0 0.6 0 0 0 0.12 0"/>
<feBlend mode="normal" in2="BackgroundImageFix" result="effect1_dropShadow_4_101"/>
<feBlend mode="normal" in="SourceGraphic" in2="effect1_dropShadow_4_101" result="shape"/>
</filter>
<clipPath id="clip0_4_101">
<rect width="37.5" height="37.5" fill="white" transform="translate(41.75 37.5)"/>
</clipPath>
</defs>
</svg>
