<svg width="150" height="18" viewBox="0 0 150 18" fill="none" xmlns="http://www.w3.org/2000/svg">
<path d="M9.192 17.096L12.936 5.888L16.608 17.096H19.656L25.32 0.199999H21.552L18.096 11.528L14.28 0.151999H11.592L7.8 11.528L4.344 0.199999H0.504L6.144 17.096H9.192ZM29.2532 13.4C28.6292 12.752 28.3172 11.96 28.3172 11C28.3172 10.04 28.6292 9.248 29.2532 8.624C29.8772 7.976 30.6692 7.664 31.6292 7.664C32.5892 7.664 33.3812 7.976 34.0052 8.624C34.6292 9.248 34.9412 10.04 34.9412 11C34.9412 11.96 34.6292 12.752 34.0052 13.4C33.3812 14.048 32.5892 14.36 31.6292 14.36C30.6692 14.36 29.8772 14.048 29.2532 13.4ZM24.9812 11C24.9812 12.8 25.6052 14.288 26.8532 15.512C28.1012 16.712 29.6852 17.312 31.6292 17.312C33.5732 17.312 35.1572 16.712 36.4052 15.512C37.6532 14.288 38.2772 12.8 38.2772 11C38.2772 9.248 37.6532 7.76 36.4052 6.536C35.1572 5.312 33.5732 4.712 31.6292 4.712C29.6852 4.712 28.1012 5.312 26.8532 6.536C25.6052 7.736 24.9812 9.224 24.9812 11ZM44.1572 17V10.016C44.6372 8.936 46.0292 7.928 47.6612 7.928C48.0692 7.928 48.4292 7.976 48.7172 8.048V4.736C48.6212 4.712 48.5012 4.712 48.3332 4.712C47.4452 4.712 46.6052 4.952 45.8372 5.408C45.0692 5.864 44.5172 6.416 44.1572 7.04V5.024H40.7732V17H44.1572ZM54.3056 17V11.84L59.0336 17H63.4016L57.3776 10.424L62.5856 5.024H58.4336L54.3056 9.392V0.199999H50.9216V17H54.3056Z" fill="black"/>
<path d="M71.7688 17C74.4808 17 76.7128 16.232 78.4168 14.672C80.1208 13.112 80.9848 11.072 80.9848 8.6C80.9848 6.128 80.1208 4.112 78.4168 2.552C76.7128 0.991999 74.4808 0.199999 71.7688 0.199999H65.4808V17H71.7688ZM68.9368 3.296H71.4808C75.2248 3.296 77.4328 5.264 77.4328 8.6C77.4328 11.936 75.2248 13.904 71.4808 13.904H68.9368V3.296ZM87.4016 13.4C86.7776 12.752 86.4656 11.96 86.4656 11C86.4656 10.04 86.7776 9.248 87.4016 8.624C88.0256 7.976 88.8176 7.664 89.7776 7.664C90.7376 7.664 91.5296 7.976 92.1536 8.624C92.7776 9.248 93.0896 10.04 93.0896 11C93.0896 11.96 92.7776 12.752 92.1536 13.4C91.5296 14.048 90.7376 14.36 89.7776 14.36C88.8176 14.36 88.0256 14.048 87.4016 13.4ZM83.1296 11C83.1296 12.8 83.7536 14.288 85.0016 15.512C86.2496 16.712 87.8336 17.312 89.7776 17.312C91.7216 17.312 93.3056 16.712 94.5536 15.512C95.8016 14.288 96.4256 12.8 96.4256 11C96.4256 9.248 95.8016 7.76 94.5536 6.536C93.3056 5.312 91.7216 4.712 89.7776 4.712C87.8336 4.712 86.2496 5.312 85.0016 6.536C83.7536 7.736 83.1296 9.224 83.1296 11ZM102.306 9.368C102.882 8.48 103.962 7.808 105.018 7.808C106.266 7.808 107.298 8.504 107.298 10.352V17H110.682V9.656C110.682 6.584 109.098 4.712 106.314 4.712C104.706 4.712 103.386 5.288 102.306 6.464V5.024H98.9216V17H102.306V9.368ZM125.158 14.384C124.606 14.384 124.318 14.072 124.318 13.472V9.416C124.318 7.952 123.79 6.8 122.734 5.96C121.702 5.12 120.31 4.712 118.606 4.712C116.854 4.712 115.39 5.024 114.166 5.672V8.504C115.294 7.832 116.518 7.496 117.79 7.496C119.902 7.496 120.958 8.24 120.958 9.752V10.112C119.998 9.608 118.846 9.368 117.502 9.368C116.206 9.368 115.102 9.704 114.166 10.376C113.23 11.048 112.774 12.032 112.774 13.304C112.774 15.728 114.598 17.312 117.19 17.312C118.894 17.312 120.262 16.76 121.318 15.68C121.774 16.712 122.662 17.216 124.03 17.216C124.822 17.216 125.422 17.048 125.854 16.712V14.24C125.686 14.336 125.446 14.384 125.158 14.384ZM120.958 13.472C120.334 14.288 119.422 14.696 118.246 14.696C116.998 14.696 116.11 14.192 116.11 13.136C116.11 12.152 117.022 11.576 118.462 11.576C119.446 11.576 120.262 11.816 120.958 12.272V13.472ZM129.089 13.28C129.089 15.968 130.385 17.312 133.001 17.312C134.225 17.312 135.161 17.096 135.857 16.664V13.856C135.281 14.144 134.705 14.288 134.105 14.288C132.953 14.288 132.473 13.784 132.473 12.608V7.856H135.881V5.024H132.473V1.736H129.089V5.024H126.737V7.856H129.089V13.28ZM144.41 17.312C146.378 17.312 147.89 16.904 148.97 16.088V13.376C147.746 14.072 146.474 14.432 145.13 14.432C143.018 14.432 141.482 13.568 141.122 11.936H149.714V11.048C149.714 9.272 149.186 7.784 148.154 6.56C147.122 5.336 145.754 4.712 144.002 4.712C142.154 4.712 140.642 5.312 139.49 6.536C138.338 7.736 137.762 9.224 137.762 11C137.762 12.896 138.41 14.432 139.682 15.584C140.954 16.736 142.538 17.312 144.41 17.312ZM141.122 9.776C141.29 8.36 142.322 7.376 143.858 7.376C145.37 7.376 146.306 8.456 146.378 9.776H141.122Z" fill="#0066FF"/>
</svg>
